<svg width="1370" height="917" viewBox="0 0 1370 917" fill="none" xmlns="http://www.w3.org/2000/svg">
<g filter="url(#filter0_f_123_570)">
<g filter="url(#filter1_f_123_570)">
<path d="M477.215 66.2878L536.908 81.9371L598.463 77.5536L637.557 125.301L689.933 157.936L693.495 219.543L716.686 276.731L683.356 328.667L668.504 388.563L611.012 410.99L563.79 450.717L504.097 435.068L442.542 439.451L403.448 391.704L351.072 359.069L347.509 297.461L324.319 240.274L357.648 188.338L372.501 128.441L429.992 106.015L477.215 66.2878Z" fill="#B7ABFF" fill-opacity="0.3"/>
</g>
<g filter="url(#filter2_f_123_570)">
<path d="M1124.77 541.007L1177.18 554.748L1231.22 550.899L1265.55 592.822L1311.54 621.475L1314.66 675.568L1335.03 725.779L1305.76 771.379L1292.72 823.969L1242.24 843.66L1200.78 878.541L1148.37 864.801L1094.32 868.65L1060 826.727L1014.01 798.073L1010.88 743.981L990.522 693.769L1019.79 648.169L1032.83 595.579L1083.31 575.888L1124.77 541.007Z" fill="#B7ABFF" fill-opacity="0.3"/>
</g>
<g filter="url(#filter3_f_123_570)">
<path d="M115.868 256.067L149.057 264.768L183.28 262.331L205.016 288.878L234.136 307.022L236.117 341.275L249.011 373.07L230.48 401.946L222.222 435.247L190.258 447.716L164.003 469.804L130.814 461.103L96.5909 463.54L74.855 436.993L45.7351 418.849L43.7542 384.596L30.8606 352.801L49.3914 323.925L57.6491 290.624L89.6135 278.155L115.868 256.067Z" fill="#FFD3D8"/>
</g>
<g filter="url(#filter4_f_123_570)">
<path d="M141.772 694.263L162.819 699.78L184.522 698.235L198.307 715.07L216.773 726.576L218.03 748.298L226.206 768.462L214.455 786.774L209.218 807.892L188.947 815.8L172.297 829.807L151.25 824.289L129.547 825.835L115.763 809L97.2961 797.493L96.0399 775.771L87.8632 755.608L99.6148 737.296L104.852 716.177L125.122 708.27L141.772 694.263Z" fill="#FFD3D8"/>
</g>
<g filter="url(#filter5_f_123_570)">
<path d="M775.896 502.146L805.056 509.791L835.125 507.649L854.222 530.974L879.808 546.915L881.548 577.01L892.876 604.946L876.595 630.317L869.34 659.576L841.255 670.531L818.188 689.938L789.028 682.293L758.958 684.434L739.861 661.11L714.276 645.168L712.535 615.073L701.207 587.137L717.488 561.767L724.744 532.508L752.828 521.552L775.896 502.146Z" fill="#FFD3D8"/>
</g>
<g filter="url(#filter6_f_123_570)">
<path d="M1123.9 359.146L1153.06 366.79L1183.12 364.649L1202.22 387.974L1227.81 403.915L1229.55 434.01L1240.88 461.946L1224.6 487.317L1217.34 516.576L1189.26 527.531L1166.19 546.938L1137.03 539.293L1106.96 541.434L1087.86 518.11L1062.28 502.168L1060.54 472.073L1049.21 444.137L1065.49 418.767L1072.74 389.508L1100.83 378.552L1123.9 359.146Z" fill="#FFD3D8"/>
</g>
<g filter="url(#filter7_f_123_570)">
<path d="M155.687 58.6567L196.584 69.3782L238.755 66.375L265.539 99.087L301.422 121.445L303.863 163.653L319.751 202.832L296.916 238.414L286.741 279.45L247.353 294.814L215.001 322.031L174.104 311.31L131.933 314.313L105.149 281.601L69.2664 259.243L66.8255 217.035L50.9375 177.856L73.7719 142.274L83.9474 101.239L123.335 85.8741L155.687 58.6567Z" fill="#DDFFF9"/>
</g>
<g filter="url(#filter8_f_123_570)">
<path d="M1100.4 40.4009L1156.11 55.0065L1213.56 50.9153L1250.04 95.4785L1298.93 125.937L1302.25 183.436L1323.9 236.809L1292.79 285.281L1278.93 341.183L1225.27 362.114L1181.2 399.192L1125.48 384.586L1068.04 388.678L1031.55 344.114L982.666 313.656L979.34 256.157L957.697 202.784L988.803 154.311L1002.67 98.4094L1056.32 77.4788L1100.4 40.4009Z" fill="#DDFFF9"/>
</g>
<g filter="url(#filter9_f_123_570)">
<path d="M478.852 518.694L519.799 529.429L562.023 526.422L588.841 559.175L624.768 581.561L627.212 623.821L643.12 663.05L620.257 698.676L610.069 739.762L570.632 755.146L538.239 782.397L497.292 771.662L455.068 774.669L428.25 741.916L392.323 719.53L389.879 677.27L373.971 638.042L396.834 602.416L407.022 561.329L446.459 545.945L478.852 518.694Z" fill="#FFE9B1"/>
</g>
<g filter="url(#filter10_f_123_570)">
<path d="M878.736 637.866L917.163 647.94L956.788 645.118L981.954 675.855L1015.67 696.863L1017.96 736.522L1032.89 773.336L1011.44 806.769L1001.88 845.327L964.866 859.763L934.468 885.337L896.041 875.263L856.416 878.085L831.249 847.348L797.533 826.34L795.24 786.681L780.311 749.867L801.767 716.434L811.328 677.877L848.337 663.44L878.736 637.866Z" fill="#FFE9B1"/>
</g>
<g filter="url(#filter11_f_123_570)">
<path d="M867.503 33.2558L894.056 40.2171L921.438 38.2671L938.828 59.5067L962.127 74.0236L963.711 101.429L974.027 126.867L959.201 149.97L952.594 176.614L927.02 186.59L906.015 204.262L879.461 197.3L852.08 199.25L834.689 178.011L811.391 163.494L809.806 136.089L799.49 110.65L814.316 87.5475L820.923 60.9036L846.497 50.9277L867.503 33.2558Z" fill="#FFE9B1"/>
</g>
</g>
<defs>
<filter id="filter0_f_123_570" x="0.860596" y="3.25576" width="1364.17" height="912.082" filterUnits="userSpaceOnUse" color-interpolation-filters="sRGB">
<feFlood flood-opacity="0" result="BackgroundImageFix"/>
<feBlend mode="normal" in="SourceGraphic" in2="BackgroundImageFix" result="shape"/>
<feGaussianBlur stdDeviation="15" result="effect1_foregroundBlur_123_570"/>
</filter>
<filter id="filter1_f_123_570" x="313.219" y="55.1878" width="414.567" height="406.629" filterUnits="userSpaceOnUse" color-interpolation-filters="sRGB">
<feFlood flood-opacity="0" result="BackgroundImageFix"/>
<feBlend mode="normal" in="SourceGraphic" in2="BackgroundImageFix" result="shape"/>
<feGaussianBlur stdDeviation="5.55" result="effect1_foregroundBlur_123_570"/>
</filter>
<filter id="filter2_f_123_570" x="979.422" y="529.907" width="366.703" height="359.734" filterUnits="userSpaceOnUse" color-interpolation-filters="sRGB">
<feFlood flood-opacity="0" result="BackgroundImageFix"/>
<feBlend mode="normal" in="SourceGraphic" in2="BackgroundImageFix" result="shape"/>
<feGaussianBlur stdDeviation="5.55" result="effect1_foregroundBlur_123_570"/>
</filter>
<filter id="filter3_f_123_570" x="19.7606" y="244.967" width="240.35" height="235.937" filterUnits="userSpaceOnUse" color-interpolation-filters="sRGB">
<feFlood flood-opacity="0" result="BackgroundImageFix"/>
<feBlend mode="normal" in="SourceGraphic" in2="BackgroundImageFix" result="shape"/>
<feGaussianBlur stdDeviation="5.55" result="effect1_foregroundBlur_123_570"/>
</filter>
<filter id="filter4_f_123_570" x="76.7632" y="683.163" width="160.543" height="157.744" filterUnits="userSpaceOnUse" color-interpolation-filters="sRGB">
<feFlood flood-opacity="0" result="BackgroundImageFix"/>
<feBlend mode="normal" in="SourceGraphic" in2="BackgroundImageFix" result="shape"/>
<feGaussianBlur stdDeviation="5.55" result="effect1_foregroundBlur_123_570"/>
</filter>
<filter id="filter5_f_123_570" x="690.107" y="491.046" width="213.869" height="209.992" filterUnits="userSpaceOnUse" color-interpolation-filters="sRGB">
<feFlood flood-opacity="0" result="BackgroundImageFix"/>
<feBlend mode="normal" in="SourceGraphic" in2="BackgroundImageFix" result="shape"/>
<feGaussianBlur stdDeviation="5.55" result="effect1_foregroundBlur_123_570"/>
</filter>
<filter id="filter6_f_123_570" x="1038.11" y="348.046" width="213.869" height="209.992" filterUnits="userSpaceOnUse" color-interpolation-filters="sRGB">
<feFlood flood-opacity="0" result="BackgroundImageFix"/>
<feBlend mode="normal" in="SourceGraphic" in2="BackgroundImageFix" result="shape"/>
<feGaussianBlur stdDeviation="5.55" result="effect1_foregroundBlur_123_570"/>
</filter>
<filter id="filter7_f_123_570" x="39.8375" y="47.5567" width="291.013" height="285.575" filterUnits="userSpaceOnUse" color-interpolation-filters="sRGB">
<feFlood flood-opacity="0" result="BackgroundImageFix"/>
<feBlend mode="normal" in="SourceGraphic" in2="BackgroundImageFix" result="shape"/>
<feGaussianBlur stdDeviation="5.55" result="effect1_foregroundBlur_123_570"/>
</filter>
<filter id="filter8_f_123_570" x="946.597" y="29.3009" width="388.4" height="380.991" filterUnits="userSpaceOnUse" color-interpolation-filters="sRGB">
<feFlood flood-opacity="0" result="BackgroundImageFix"/>
<feBlend mode="normal" in="SourceGraphic" in2="BackgroundImageFix" result="shape"/>
<feGaussianBlur stdDeviation="5.55" result="effect1_foregroundBlur_123_570"/>
</filter>
<filter id="filter9_f_123_570" x="362.871" y="507.594" width="291.349" height="285.903" filterUnits="userSpaceOnUse" color-interpolation-filters="sRGB">
<feFlood flood-opacity="0" result="BackgroundImageFix"/>
<feBlend mode="normal" in="SourceGraphic" in2="BackgroundImageFix" result="shape"/>
<feGaussianBlur stdDeviation="5.55" result="effect1_foregroundBlur_123_570"/>
</filter>
<filter id="filter10_f_123_570" x="769.211" y="626.766" width="274.781" height="269.671" filterUnits="userSpaceOnUse" color-interpolation-filters="sRGB">
<feFlood flood-opacity="0" result="BackgroundImageFix"/>
<feBlend mode="normal" in="SourceGraphic" in2="BackgroundImageFix" result="shape"/>
<feGaussianBlur stdDeviation="5.55" result="effect1_foregroundBlur_123_570"/>
</filter>
<filter id="filter11_f_123_570" x="788.39" y="22.1558" width="196.737" height="193.206" filterUnits="userSpaceOnUse" color-interpolation-filters="sRGB">
<feFlood flood-opacity="0" result="BackgroundImageFix"/>
<feBlend mode="normal" in="SourceGraphic" in2="BackgroundImageFix" result="shape"/>
<feGaussianBlur stdDeviation="5.55" result="effect1_foregroundBlur_123_570"/>
</filter>
</defs>
</svg>
