<svg width="417" height="198" viewBox="0 0 417 198" fill="none" xmlns="http://www.w3.org/2000/svg">
<g filter="url(#filter0_d_123_432)">
<path d="M164.772 145.954C161.851 145.954 159.307 145.011 157.139 143.126C154.972 141.24 153.888 138.176 153.888 133.933C153.888 129.879 154.595 125.306 156.008 120.214C157.516 115.217 159.495 109.937 161.945 104.374C164.49 98.8114 167.223 93.2486 170.144 87.6857C173.254 81.6515 176.458 75.8529 179.757 70.29C183.054 64.6329 185.788 59.6829 187.956 55.44C189.274 52.9885 190.311 50.8671 191.065 49.0757C191.818 47.2844 192.196 45.8701 192.196 44.8329C192.196 43.4186 191.442 42.7114 189.935 42.7114C188.708 42.7114 186.683 43.2772 183.856 44.4086C181.688 45.3514 179.474 46.53 177.211 47.9443C174.95 49.3586 172.971 50.7729 171.275 52.1872C161.097 60.6729 151.909 70.3372 143.71 81.18C135.606 92.0228 128.02 102.913 120.952 113.85C120.387 114.699 119.68 115.123 118.832 115.123C118.172 115.123 117.559 114.887 116.994 114.416C116.523 113.944 116.287 113.379 116.287 112.719C116.287 112.247 116.429 111.823 116.711 111.446C121.894 103.054 126.324 94.9458 129.999 87.12C133.768 79.2942 137.255 70.6671 140.459 61.2386C141.496 58.41 142.203 55.9585 142.579 53.8843C142.956 51.7157 143.145 49.8771 143.145 48.3686C143.145 44.5972 141.873 42.7114 139.328 42.7114C138.763 42.7114 138.103 42.8529 137.349 43.1357C134.522 43.9843 131.507 45.9171 128.302 48.9343C125.098 51.8571 121.753 55.5342 118.266 59.9657C114.874 64.3028 111.387 69.0644 107.806 74.25C104.225 79.3414 100.644 84.5271 97.0628 89.8072C96.3089 90.9386 95.2724 92.5415 93.953 94.6157C92.728 96.6899 91.4086 98.9528 89.995 101.404C88.5815 103.856 87.2151 106.213 85.8957 108.476C84.5763 110.644 83.4927 112.436 82.6445 113.85C81.8906 115.264 81.5137 115.971 81.5137 115.971C81.0424 116.82 80.2887 117.244 79.252 117.244C78.5924 117.244 78.027 117.056 77.5557 116.679C77.0845 116.207 76.8489 115.689 76.8489 115.123C76.8489 114.651 76.9903 114.227 77.273 113.85C77.273 113.85 77.7442 113.001 78.6866 111.304C79.7232 109.513 81.0424 107.156 82.6445 104.233C84.2466 101.31 85.9899 98.1514 87.8747 94.7571C89.7595 91.3629 91.5971 87.9686 93.3876 84.5743C95.2724 81.18 96.9215 78.1158 98.335 75.3814C102.387 67.5557 105.214 60.9085 106.816 55.44C108.513 49.9715 109.361 45.3986 109.361 41.7214C109.361 36.9129 108.277 33.5186 106.11 31.5386C103.942 29.5586 101.492 28.5214 98.7591 28.4271C92.6336 28.1443 86.6967 29.2285 80.9483 31.68C75.294 34.0371 70.0167 37.2899 65.1164 41.4386C60.3103 45.5872 56.0696 50.16 52.3944 55.1572C48.7191 60.1544 45.8448 65.1986 43.7716 70.29C41.7927 75.2872 40.8032 79.86 40.8032 84.0086C40.8032 88.0628 41.9812 91.4101 44.3371 94.05C46.6929 96.6899 50.4625 98.01 55.6455 98.01C59.3208 98.01 62.6192 97.1614 65.5405 95.4643C68.4618 93.7672 70.9592 91.5985 73.0323 88.9586C75.1055 86.3186 76.7076 83.5371 77.8384 80.6143C78.9693 77.6915 79.5347 75.0044 79.5347 72.5529C79.5347 70.4786 79.0634 68.7343 78.1211 67.32C77.273 65.9057 75.9066 65.1514 74.0218 65.0572C73.3622 65.0572 72.8438 64.8685 72.4669 64.4914C72.1842 64.02 72.0428 63.5486 72.0428 63.0772C72.0428 62.4172 72.2314 61.8515 72.6082 61.38C73.0795 60.8143 73.6919 60.5314 74.4459 60.5314C77.9326 60.5314 80.477 61.7101 82.0791 64.0672C83.6812 66.33 84.4822 69.1114 84.4822 72.4114C84.4822 75.5229 83.7754 78.8229 82.3618 82.3114C81.0424 85.8 79.1106 89.1 76.5662 92.2114C74.0218 95.3229 70.9592 97.8686 67.3781 99.8486C63.797 101.734 59.7449 102.677 55.2215 102.677C48.3422 102.677 43.3004 100.933 40.0964 97.4443C36.9866 93.8614 35.4316 89.3829 35.4316 84.0086C35.4316 79.0114 36.6097 73.5429 38.9655 67.6029C41.4158 61.6629 44.8083 55.9115 49.1432 50.3486C53.1011 45.2571 57.7187 40.6372 62.996 36.4886C68.3676 32.3399 74.1632 29.0871 80.3828 26.73C86.6025 24.3729 92.9163 23.3357 99.3245 23.6186C103.942 23.8072 107.57 25.3629 110.209 28.2857C112.942 31.2085 114.308 35.4514 114.308 41.0143C114.308 44.6914 113.649 48.9343 112.329 53.7429C111.104 58.4572 109.125 63.7843 106.392 69.7243C107.994 67.2728 110.02 64.2558 112.471 60.6729C114.921 57.09 117.654 53.5542 120.669 50.0657C123.685 46.5772 126.842 43.6542 130.14 41.2971C133.438 38.8457 136.69 37.62 139.894 37.62C142.815 37.62 144.888 38.61 146.113 40.59C147.338 42.4758 147.951 44.8329 147.951 47.6614C147.951 50.3958 147.574 53.3658 146.82 56.5714C146.066 59.7771 145.124 62.9357 143.993 66.0472C142.862 69.1586 141.731 72.0344 140.6 74.6743C139.564 77.22 138.716 79.2472 138.056 80.7557C140.224 78.0214 142.862 74.8157 145.972 71.1386C149.176 67.3672 152.663 63.5486 156.432 59.6829C160.202 55.7229 164.066 52.0457 168.024 48.6514C172.076 45.2572 176.081 42.5228 180.04 40.4486C184.091 38.3743 187.908 37.3372 191.489 37.3372C195.73 37.3372 197.85 39.3171 197.85 43.2771C197.85 46.1999 196.72 49.7357 194.458 53.8843C193.703 55.2986 192.338 57.7501 190.359 61.2386C188.38 64.6329 186.07 68.7343 183.432 73.5429C180.792 78.2572 178.061 83.3486 175.233 88.8172C172.5 94.2857 169.908 99.7544 167.458 105.223C165.102 110.597 163.17 115.641 161.662 120.356C160.155 125.164 159.401 129.266 159.401 132.66C159.401 135.3 159.966 137.374 161.097 138.883C162.228 140.391 164.113 141.146 166.751 141.146C168.919 141.146 171.133 140.486 173.395 139.166C175.751 137.846 177.589 136.431 178.909 134.923C179.379 134.169 179.992 133.791 180.746 133.791C181.782 133.791 182.301 134.404 182.301 135.63C182.301 136.196 182.019 136.856 181.453 137.61C179.379 140.061 176.834 142.041 173.819 143.55C170.803 145.153 167.788 145.954 164.772 145.954ZM186.706 116.961C185.199 116.961 184.068 116.443 183.314 115.406C182.561 114.369 182.183 113.096 182.183 111.587C182.183 109.136 182.844 106.59 184.162 103.95C185.482 101.216 187.084 98.4815 188.968 95.7472C190.853 93.0128 192.926 90.1842 195.188 87.2614C195.659 86.6957 196.319 85.7057 197.167 84.2914C198.11 82.8772 198.958 81.4157 199.711 79.9072C200.466 78.3986 200.796 77.22 200.701 76.3714C200.607 74.7685 200.937 73.5901 201.69 72.8357C202.445 71.9872 203.293 71.5629 204.234 71.5629C205.178 71.5629 205.885 71.9399 206.355 72.6943C206.92 73.5429 207.203 74.5801 207.203 75.8057C207.203 77.1258 206.733 78.7757 205.789 80.7557C204.941 82.6415 203.434 85.0458 201.266 87.9686C199.57 90.2314 197.686 92.6829 195.612 95.3229C193.633 97.8686 191.937 100.367 190.523 102.819C189.109 105.27 188.403 107.344 188.403 109.041C188.403 110.267 188.922 110.88 189.958 110.88C190.618 110.88 191.56 110.597 192.785 110.031C194.294 109.277 196.366 107.816 199.004 105.647C201.738 103.479 204.565 101.027 207.486 98.2929C210.502 95.4643 213.235 92.7299 215.684 90.09C218.229 87.4501 220.066 85.3757 221.197 83.8671C221.763 83.0186 222.469 82.5943 223.318 82.5943C223.978 82.5943 224.59 82.8299 225.155 83.3014C225.721 83.7729 226.003 84.3857 226.003 85.14C226.003 85.5171 225.862 85.9414 225.579 86.4129C225.014 87.4501 224.261 88.9114 223.318 90.7972C222.376 92.6829 221.434 94.71 220.49 96.8786C219.642 99.0472 218.89 101.074 218.229 102.96C217.663 104.751 217.381 106.119 217.381 107.061C217.381 108.099 217.711 108.617 218.37 108.617C218.842 108.617 219.407 108.382 220.066 107.91C220.821 107.344 221.48 106.873 222.045 106.496C224.402 104.61 226.569 102.63 228.548 100.556C230.622 98.3871 232.506 96.3601 234.202 94.4743C234.58 94.0028 235.05 93.7672 235.615 93.7672C236.087 93.7672 236.511 94.05 236.888 94.6157C237.359 95.0872 237.594 95.7 237.594 96.4543C237.594 97.3029 237.359 98.01 236.888 98.5757C235.38 100.556 233.402 102.771 230.951 105.223C228.502 107.58 226.334 109.466 224.448 110.88C223.224 111.729 221.763 112.577 220.066 113.426C218.465 114.18 216.957 114.557 215.543 114.557C214.318 114.557 213.329 114.227 212.574 113.567C211.915 112.813 211.585 111.54 211.585 109.749C211.585 108.24 211.822 106.496 212.292 104.516C212.857 102.536 213.518 100.509 214.271 98.4343C211.067 101.64 207.44 104.846 203.386 108.051C199.428 111.257 195.801 113.661 192.502 115.264C190.147 116.396 188.215 116.961 186.706 116.961ZM244.304 118.093C239.119 118.093 236.529 115.5 236.529 110.314C236.529 108.146 236.999 105.694 237.943 102.96C239.356 98.8114 241.476 94.3329 244.304 89.5243C247.224 84.7157 250.193 80.0958 253.209 75.6643H248.12C247.366 75.6643 246.753 75.4286 246.283 74.9572C245.904 74.3914 245.717 73.7785 245.717 73.1186C245.717 72.5529 245.904 72.0344 246.283 71.5629C246.753 70.9972 247.366 70.7143 248.12 70.7143H256.743C257.778 69.3942 258.722 68.1214 259.57 66.8957C260.418 65.5757 261.266 64.3028 262.114 63.0772C263.433 59.6829 265.035 56.43 266.921 53.3186C268.9 50.2072 271.303 47.7086 274.13 45.8229C274.6 45.54 275.024 45.3986 275.402 45.3986C276.155 45.3986 276.815 45.7757 277.381 46.53C277.946 47.1899 278.229 47.9443 278.229 48.7929C278.229 49.4528 277.992 50.1599 277.522 50.9143C277.24 51.2914 276.344 52.47 274.836 54.45C273.327 56.43 271.538 58.8815 269.465 61.8043C267.391 64.6329 265.224 67.6029 262.963 70.7143H276.533C277.381 70.7143 277.992 70.9972 278.37 71.5629C278.747 72.0344 278.936 72.5529 278.936 73.1186C278.936 73.7785 278.747 74.3914 278.37 74.9572C277.992 75.4286 277.381 75.6643 276.533 75.6643H259.57L258.298 77.6443C257.45 78.8699 256.177 80.8499 254.481 83.5843C252.879 86.3186 251.135 89.3357 249.251 92.6357C247.459 95.9358 245.904 99.1414 244.586 102.253C243.36 105.27 242.749 107.769 242.749 109.749C242.749 112.106 243.738 113.284 245.717 113.284C247.318 113.284 249.721 112.53 252.926 111.021C256.223 109.419 259.475 107.25 262.68 104.516C264.563 102.913 266.307 101.216 267.91 99.4243C269.511 97.6329 271.02 95.9828 272.433 94.4743C272.81 94.0028 273.282 93.7672 273.847 93.7672C274.317 93.7672 274.741 94.05 275.119 94.6157C275.589 95.0872 275.826 95.7 275.826 96.4543C275.826 97.3029 275.589 98.01 275.119 98.5757C273.706 100.556 271.727 102.771 269.182 105.223C266.731 107.58 264.563 109.466 262.68 110.88C259.098 113.52 255.234 115.5 251.089 116.82C248.544 117.669 246.283 118.093 244.304 118.093ZM279.999 118.8C277.079 118.8 274.58 117.904 272.508 116.113C270.529 114.321 269.539 111.21 269.539 106.779C269.539 103.761 270.294 100.226 271.801 96.1714C273.403 92.1172 275.524 88.2042 278.162 84.4329C280.8 80.5671 283.722 77.4086 286.926 74.9572C290.129 72.4114 293.381 71.1386 296.679 71.1386C298.848 71.1386 300.448 71.9399 301.486 73.5429C302.616 75.0514 303.182 76.89 303.182 79.0586C303.182 82.2642 302.145 85.3757 300.072 88.3929C297.999 91.4101 295.36 93.8614 292.156 95.7472C289.046 97.6329 285.936 98.5757 282.827 98.5757C280.282 98.5757 278.351 97.7744 277.031 96.1714C276.277 98.0572 275.665 99.8958 275.193 101.687C274.722 103.479 274.487 105.176 274.487 106.779C274.487 109.513 275.052 111.446 276.183 112.577C277.407 113.614 278.916 114.133 280.706 114.133C282.874 114.133 285.277 113.567 287.915 112.436C290.649 111.304 293.193 109.984 295.549 108.476C297.904 106.873 299.648 105.553 300.779 104.516C302.664 102.913 304.454 101.169 306.15 99.2829C307.94 97.3029 309.495 95.4643 310.815 93.7672C311.287 93.2014 311.805 92.9186 312.37 92.9186C312.935 92.9186 313.407 93.2014 313.784 93.7672C314.255 94.2386 314.49 94.8514 314.49 95.6057C314.49 96.2657 314.255 96.9258 313.784 97.5857C312.276 99.4715 310.391 101.64 308.129 104.091C305.961 106.449 303.512 108.664 300.779 110.739C299.272 111.964 297.339 113.19 294.983 114.416C292.628 115.641 290.129 116.679 287.491 117.527C284.947 118.376 282.45 118.8 279.999 118.8ZM282.544 94.05C284.429 94.05 286.454 93.4371 288.622 92.2114C290.884 90.9858 292.863 89.3829 294.559 87.4029C296.349 85.3286 297.528 83.1128 298.093 80.7557C298.187 80.5671 298.234 80.3314 298.234 80.0486C298.234 79.7657 298.234 79.5301 298.234 79.3414C298.234 77.6443 297.621 76.7957 296.397 76.7957C294.418 76.7957 292.345 77.5501 290.177 79.0586C288.009 80.4729 285.936 82.4057 283.957 84.8572C282.072 87.2142 280.376 89.8072 278.869 92.6357C279.245 92.9186 279.623 93.2014 279.999 93.4843C280.376 93.6729 280.754 93.8144 281.13 93.9086C281.319 94.0028 281.554 94.05 281.837 94.05C282.12 94.05 282.355 94.05 282.544 94.05Z" fill="#FFD466"/>
<path d="M388.729 132.589H187.296C175.586 132.589 166.093 142.087 166.093 153.804V162.643C166.093 174.359 175.586 183.857 187.296 183.857H388.729C400.439 183.857 409.932 174.359 409.932 162.643V153.804C409.932 142.087 400.439 132.589 388.729 132.589Z" fill="#FFD466"/>
<path d="M321.585 31.8214V111.375C321.585 114.304 323.958 116.679 326.886 116.679H341.021C343.949 116.679 346.322 114.304 346.322 111.375V31.8214C346.322 28.8924 343.949 26.5179 341.021 26.5179H326.886C323.958 26.5179 321.585 28.8924 321.585 31.8214Z" fill="white"/>
<path d="M339.254 49.5H328.652V106.071H339.254V49.5Z" fill="#8CBFB6"/>
<path d="M346.322 35.3572H321.585V40.6607H346.322V35.3572Z" fill="#8CBFB6"/>
<path d="M350.148 43.6865L353.944 112.528C354.105 115.453 356.606 117.693 359.529 117.532L370.29 116.938C373.214 116.776 375.452 114.275 375.291 111.35L371.495 42.5082C371.334 39.5835 368.833 37.3435 365.91 37.5048L355.149 38.0989C352.226 38.2602 349.987 40.7619 350.148 43.6865Z" fill="white"/>
<path d="M371.53 43.5931L350.23 44.7696L350.523 50.0651L371.823 48.8886L371.53 43.5931Z" fill="#8CBFB6"/>
<path d="M376 67.005L388.731 113.266C389.509 116.09 392.427 117.749 395.249 116.972L404.34 114.467C407.162 113.69 408.82 110.77 408.043 107.946L395.311 61.6848C394.534 58.8608 391.616 57.2019 388.794 57.9795L379.703 60.4838C376.881 61.2614 375.223 64.1811 376 67.005Z" fill="white"/>
<path d="M395.477 62.2744L376.152 67.6002L377.559 72.7134L396.885 67.3876L395.477 62.2744Z" fill="#8CBFB6"/>
<path d="M397.274 68.9955L378.039 74.2965L378.68 76.6263L397.915 71.3253L397.274 68.9955Z" fill="#8CBFB6"/>
<g filter="url(#filter1_i_123_432)">
<path d="M203.793 167.409C204.749 167.409 205.441 167.128 205.871 166.568C206.332 165.974 206.678 165.264 206.91 164.439H213.143C213.011 165.66 212.698 166.815 212.203 167.904C211.709 168.96 211.048 169.884 210.224 170.676C209.433 171.468 208.475 172.095 207.355 172.557C206.266 173.019 205.095 173.25 203.842 173.25H199.587C198.267 173.25 197.015 173.003 195.827 172.508C194.64 171.979 193.601 171.27 192.71 170.379C191.82 169.488 191.109 168.449 190.583 167.261C190.088 166.073 189.841 164.802 189.841 163.449V149.391C189.841 148.038 190.088 146.768 190.583 145.58C191.109 144.358 191.82 143.303 192.71 142.412C193.601 141.521 194.64 140.828 195.827 140.333C197.015 139.804 198.267 139.541 199.587 139.541H203.842C205.128 139.541 206.316 139.772 207.404 140.234C208.493 140.695 209.433 141.339 210.224 142.164C211.048 142.956 211.709 143.897 212.203 144.986C212.698 146.075 213.011 147.246 213.143 148.5H206.91C206.743 147.642 206.431 146.916 205.97 146.322C205.507 145.728 204.782 145.431 203.793 145.431H199.637C198.481 145.431 197.559 145.843 196.866 146.669C196.205 147.494 195.877 148.5 195.877 149.688V163.103C195.877 164.291 196.205 165.314 196.866 166.172C197.559 166.997 198.481 167.409 199.637 167.409H203.793ZM227.53 148.055C228.982 148.055 230.269 148.286 231.389 148.748C232.544 149.177 233.516 149.787 234.308 150.579C235.133 151.371 235.76 152.328 236.188 153.45C236.617 154.572 236.831 155.842 236.831 157.262V164.043C236.831 165.429 236.617 166.7 236.188 167.855C235.76 168.977 235.133 169.95 234.308 170.775C233.516 171.567 232.544 172.177 231.389 172.607C230.269 173.036 228.982 173.25 227.53 173.25H225.501C224.084 173.25 222.798 173.036 221.642 172.607C220.489 172.177 219.499 171.567 218.674 170.775C217.882 169.95 217.273 168.977 216.843 167.855C216.448 166.7 216.25 165.429 216.25 164.043V157.262C216.25 155.842 216.448 154.572 216.843 153.45C217.273 152.328 217.882 151.371 218.674 150.579C219.499 149.787 220.489 149.177 221.642 148.748C222.798 148.286 224.084 148.055 225.501 148.055H227.53ZM225.501 153.747C224.48 153.747 223.605 154.094 222.879 154.787C222.187 155.446 221.84 156.321 221.84 157.41V163.845C221.84 164.934 222.187 165.825 222.879 166.518C223.605 167.211 224.48 167.558 225.501 167.558H227.53C228.586 167.558 229.443 167.211 230.103 166.518C230.795 165.825 231.141 164.934 231.141 163.845V157.41C231.141 156.321 230.795 155.446 230.103 154.787C229.443 154.094 228.586 153.747 227.53 153.747H225.501ZM250.763 153.698C249.905 153.698 249.196 153.813 248.636 154.044C248.108 154.242 247.696 154.523 247.399 154.886C247.102 155.248 246.887 155.694 246.756 156.222C246.657 156.717 246.608 157.262 246.608 157.856V173.25H240.819V148.055H246.608V148.698C247.761 148.269 248.998 148.055 250.318 148.055H252.891C254.342 148.055 255.628 148.302 256.75 148.797C257.87 149.292 258.794 149.952 259.52 150.777C260.278 151.569 260.839 152.493 261.203 153.549C261.598 154.572 261.796 155.612 261.796 156.668V173.25H256.008V157.856C256.008 157.262 255.958 156.717 255.859 156.222C255.76 155.694 255.562 155.248 255.266 154.886C255.001 154.523 254.605 154.242 254.078 154.044C253.55 153.813 252.841 153.698 251.951 153.698H250.763ZM279.897 144.837H278.116C276.994 144.837 276.087 145.184 275.395 145.877C274.702 146.57 274.356 147.461 274.356 148.55V149.639H279.897V155.331H274.356V173.3H269.161V155.331H264.659V149.639H269.161V148.797C269.161 147.378 269.359 146.108 269.755 144.986C270.15 143.831 270.726 142.857 271.486 142.065C272.278 141.273 273.218 140.663 274.306 140.234C275.427 139.772 276.697 139.541 278.116 139.541H279.897V144.837ZM294.503 167.607C295.326 167.607 295.987 167.508 296.481 167.31C297.008 167.112 297.422 166.848 297.718 166.518C298.047 166.188 298.278 165.792 298.411 165.33C298.542 164.868 298.609 164.373 298.609 163.845V148.055H304.397V173.25H298.609V172.607C298.081 172.838 297.503 173.003 296.877 173.102C296.284 173.201 295.64 173.25 294.948 173.25H292.425C290.94 173.25 289.636 173.003 288.516 172.508C287.428 172.013 286.519 171.369 285.795 170.577C285.069 169.752 284.509 168.828 284.113 167.805C283.749 166.749 283.569 165.693 283.569 164.637V148.055H289.308V163.449C289.308 164.043 289.357 164.588 289.456 165.083C289.555 165.578 289.753 166.023 290.05 166.419C290.347 166.782 290.758 167.079 291.287 167.31C291.813 167.508 292.524 167.607 293.414 167.607H294.503ZM325.721 152.955H315.876C315.446 152.955 315.084 153.038 314.787 153.203C314.522 153.335 314.292 153.533 314.094 153.797C313.897 154.06 313.748 154.357 313.649 154.688C313.55 154.985 313.501 155.282 313.501 155.579C313.501 156.206 313.699 156.783 314.094 157.311C314.522 157.806 315.034 158.054 315.628 158.054H321.169C322.323 158.054 323.329 158.252 324.187 158.648C325.078 159.044 325.802 159.588 326.364 160.281C326.958 160.974 327.385 161.799 327.65 162.756C327.947 163.713 328.096 164.736 328.096 165.825V165.974C328.096 167.063 327.914 168.053 327.552 168.944C327.221 169.835 326.742 170.593 326.117 171.221C325.49 171.848 324.747 172.343 323.89 172.706C323.032 173.068 322.125 173.25 321.169 173.25H309.196V168.35H319.487C320.245 168.35 320.938 168.135 321.565 167.706C322.224 167.277 322.57 166.633 322.604 165.776V165.825C322.604 165.33 322.505 164.918 322.307 164.588C322.141 164.257 321.911 163.994 321.615 163.796C321.318 163.564 320.987 163.4 320.625 163.301C320.261 163.202 319.883 163.152 319.487 163.152H315.034C313.582 163.152 312.379 162.921 311.423 162.459C310.499 161.997 309.757 161.403 309.196 160.677C308.668 159.951 308.306 159.126 308.108 158.202C307.91 157.278 307.811 156.337 307.811 155.381C307.811 154.391 307.96 153.434 308.256 152.51C308.553 151.585 308.981 150.777 309.543 150.084C310.136 149.358 310.861 148.797 311.72 148.401C312.577 148.005 313.55 147.807 314.639 147.807H325.721V152.955ZM337.674 173.25H331.836V148.055H337.674V173.25ZM337.674 145.332H331.836V139.541H337.674V145.332ZM352.57 148.055C354.02 148.055 355.307 148.286 356.429 148.748C357.583 149.177 358.556 149.787 359.348 150.579C360.173 151.371 360.798 152.328 361.228 153.45C361.657 154.572 361.871 155.842 361.871 157.262V164.043C361.871 165.429 361.657 166.7 361.228 167.855C360.798 168.977 360.173 169.95 359.348 170.775C358.556 171.567 357.583 172.177 356.429 172.607C355.307 173.036 354.02 173.25 352.57 173.25H350.541C349.122 173.25 347.836 173.036 346.682 172.607C345.528 172.177 344.539 171.567 343.714 170.775C342.922 169.95 342.313 168.977 341.883 167.855C341.487 166.7 341.29 165.429 341.29 164.043V157.262C341.29 155.842 341.487 154.572 341.883 153.45C342.313 152.328 342.922 151.371 343.714 150.579C344.539 149.787 345.528 149.177 346.682 148.748C347.836 148.286 349.122 148.055 350.541 148.055H352.57ZM350.541 153.747C349.518 153.747 348.645 154.094 347.919 154.787C347.227 155.446 346.88 156.321 346.88 157.41V163.845C346.88 164.934 347.227 165.825 347.919 166.518C348.645 167.211 349.518 167.558 350.541 167.558H352.57C353.625 167.558 354.483 167.211 355.142 166.518C355.835 165.825 356.181 164.934 356.181 163.845V157.41C356.181 156.321 355.835 155.446 355.142 154.787C354.483 154.094 353.625 153.747 352.57 153.747H350.541ZM375.802 153.698C374.945 153.698 374.236 153.813 373.674 154.044C373.148 154.242 372.734 154.523 372.437 154.886C372.14 155.248 371.927 155.694 371.794 156.222C371.695 156.717 371.646 157.262 371.646 157.856V173.25H365.857V148.055H371.646V148.698C372.801 148.269 374.038 148.055 375.356 148.055H377.929C379.381 148.055 380.668 148.302 381.788 148.797C382.91 149.292 383.834 149.952 384.559 150.777C385.318 151.569 385.879 152.493 386.241 153.549C386.637 154.572 386.834 155.612 386.834 156.668V173.25H381.046V157.856C381.046 157.262 380.996 156.717 380.897 156.222C380.799 155.694 380.601 155.248 380.304 154.886C380.04 154.523 379.645 154.242 379.116 154.044C378.59 153.813 377.88 153.698 376.989 153.698H375.802Z" fill="#8CBFB6"/>
</g>
<path d="M70.4438 138.909H59.6831V131.113H88.8731V138.909H77.9887V173.25H70.4438V138.909ZM104.634 148.809C103.562 148.809 102.676 148.954 101.975 149.243C101.315 149.49 100.8 149.841 100.429 150.294C100.058 150.748 99.79 151.305 99.625 151.965C99.5013 152.584 99.4395 153.264 99.4395 154.007V173.25H92.513V131.113H99.4395V142.436C100.058 142.23 100.697 142.065 101.357 141.941C102.058 141.818 102.8 141.756 103.583 141.756H107.294C109.108 141.756 110.695 142.065 112.055 142.684C113.457 143.303 114.612 144.128 115.519 145.159C116.467 146.149 117.168 147.304 117.621 148.624C118.075 149.902 118.302 151.202 118.302 152.522V173.25H111.313V154.007C111.313 153.264 111.252 152.584 111.128 151.965C111.004 151.305 110.736 150.748 110.324 150.294C109.953 149.841 109.438 149.49 108.778 149.243C108.118 148.954 107.252 148.809 106.18 148.809H104.634ZM122.392 152.955C122.392 151.429 122.681 150.006 123.258 148.686C123.835 147.324 124.598 146.128 125.546 145.097C126.494 144.066 127.587 143.261 128.824 142.684C130.061 142.065 131.298 141.756 132.534 141.756H139.585C141.192 141.756 142.615 142.106 143.852 142.808C145.13 143.467 146.181 144.334 147.006 145.406C147.872 146.437 148.531 147.613 148.985 148.933C149.479 150.212 149.727 151.47 149.727 152.708V160.689H129.69V162.36C129.69 163.845 130.102 164.897 130.926 165.516C131.751 166.134 132.844 166.444 134.204 166.444H148.614V173.374H132.596C131.194 173.374 129.875 173.106 128.638 172.569C127.401 171.992 126.309 171.229 125.361 170.28C124.453 169.331 123.732 168.197 123.196 166.877C122.66 165.557 122.392 164.113 122.392 162.546V152.955ZM129.751 154.811H142.553V154.502C142.553 152.893 142.141 151.573 141.316 150.542C140.492 149.469 139.378 148.933 137.977 148.933H134.142C133.483 148.933 132.885 149.098 132.349 149.428C131.813 149.717 131.359 150.109 130.988 150.604C130.617 151.099 130.308 151.697 130.061 152.398C129.854 153.058 129.751 153.759 129.751 154.502V154.811Z" fill="white"/>
</g>
<defs>
<filter id="filter0_d_123_432" x="31.4316" y="23.5731" width="382.5" height="168.284" filterUnits="userSpaceOnUse" color-interpolation-filters="sRGB">
<feFlood flood-opacity="0" result="BackgroundImageFix"/>
<feColorMatrix in="SourceAlpha" type="matrix" values="0 0 0 0 0 0 0 0 0 0 0 0 0 0 0 0 0 0 127 0" result="hardAlpha"/>
<feOffset dy="4"/>
<feGaussianBlur stdDeviation="2"/>
<feComposite in2="hardAlpha" operator="out"/>
<feColorMatrix type="matrix" values="0 0 0 0 0 0 0 0 0 0 0 0 0 0 0 0 0 0 0.25 0"/>
<feBlend mode="normal" in2="BackgroundImageFix" result="effect1_dropShadow_123_432"/>
<feBlend mode="normal" in="SourceGraphic" in2="effect1_dropShadow_123_432" result="shape"/>
</filter>
<filter id="filter1_i_123_432" x="189.841" y="139.541" width="196.994" height="37.759" filterUnits="userSpaceOnUse" color-interpolation-filters="sRGB">
<feFlood flood-opacity="0" result="BackgroundImageFix"/>
<feBlend mode="normal" in="SourceGraphic" in2="BackgroundImageFix" result="shape"/>
<feColorMatrix in="SourceAlpha" type="matrix" values="0 0 0 0 0 0 0 0 0 0 0 0 0 0 0 0 0 0 127 0" result="hardAlpha"/>
<feOffset dy="4"/>
<feGaussianBlur stdDeviation="2"/>
<feComposite in2="hardAlpha" operator="arithmetic" k2="-1" k3="1"/>
<feColorMatrix type="matrix" values="0 0 0 0 0 0 0 0 0 0 0 0 0 0 0 0 0 0 0.25 0"/>
<feBlend mode="normal" in2="shape" result="effect1_innerShadow_123_432"/>
</filter>
</defs>
</svg>
