<svg width="571" height="271" viewBox="0 0 571 271" fill="none" xmlns="http://www.w3.org/2000/svg">
<g filter="url(#filter0_d_123_401)">
<path d="M225.624 199.766C221.623 199.766 218.139 198.475 215.171 195.894C212.203 193.313 210.72 189.119 210.72 183.312C210.72 177.763 211.687 171.504 213.623 164.536C215.688 157.696 218.397 150.47 221.752 142.856C225.236 135.242 228.979 127.628 232.979 120.014C237.237 111.755 241.624 103.819 246.142 96.205C250.657 88.4622 254.4 81.6872 257.369 75.88C259.174 72.5247 260.594 69.6211 261.627 67.1693C262.658 64.7175 263.175 62.7818 263.175 61.3622C263.175 59.4264 262.142 58.4586 260.078 58.4586C258.399 58.4586 255.627 59.2329 251.755 60.7814C248.787 62.0718 245.755 63.685 242.656 65.6207C239.56 67.5564 236.85 69.4922 234.527 71.4279C220.591 83.0422 208.01 96.2696 196.783 111.11C185.686 125.95 175.298 140.855 165.62 155.825C164.846 156.986 163.878 157.567 162.717 157.567C161.814 157.567 160.975 157.245 160.201 156.599C159.555 155.954 159.233 155.18 159.233 154.276C159.233 153.631 159.426 153.05 159.813 152.534C166.911 141.049 172.976 129.951 178.008 119.24C183.17 108.529 187.944 96.7211 192.331 83.8164C193.751 79.945 194.719 76.5897 195.235 73.7507C195.751 70.7826 196.009 68.2661 196.009 66.2014C196.009 61.0396 194.267 58.4586 190.783 58.4586C190.009 58.4586 189.106 58.6522 188.073 59.0393C184.202 60.2007 180.073 62.8461 175.685 66.9757C171.298 70.9761 166.717 76.009 161.943 82.0743C157.297 88.0104 152.523 94.5275 147.619 101.625C142.716 108.594 137.812 115.691 132.909 122.918C131.876 124.466 130.457 126.66 128.65 129.499C126.973 132.338 125.166 135.435 123.231 138.791C121.295 142.146 119.424 145.372 117.618 148.469C115.811 151.437 114.327 153.889 113.166 155.825C112.133 157.761 111.617 158.729 111.617 158.729C110.972 159.89 109.94 160.471 108.52 160.471C107.617 160.471 106.843 160.213 106.198 159.696C105.552 159.051 105.23 158.341 105.23 157.567C105.23 156.922 105.423 156.341 105.81 155.825C105.81 155.825 106.456 154.664 107.746 152.341C109.166 149.889 110.972 146.663 113.166 142.662C115.359 138.662 117.746 134.339 120.327 129.693C122.908 125.047 125.425 120.401 127.876 115.756C130.457 111.11 132.715 106.916 134.651 103.174C140.199 92.4626 144.071 83.3647 146.264 75.88C148.587 68.3953 149.748 62.1364 149.748 57.1036C149.748 50.5222 148.264 45.8764 145.297 43.1664C142.329 40.4564 138.974 39.0368 135.231 38.9079C126.844 38.5207 118.714 40.0047 110.843 43.36C103.101 46.5861 95.8743 51.0383 89.1643 56.7164C82.5833 62.3946 76.7765 68.6533 71.744 75.4929C66.7114 82.3325 62.7756 89.2364 59.9368 96.205C57.227 103.045 55.8721 109.303 55.8721 114.981C55.8721 120.53 57.4852 125.112 60.7111 128.725C63.937 132.338 69.0987 134.145 76.1958 134.145C81.2284 134.145 85.7448 132.984 89.745 130.661C93.7451 128.338 97.1648 125.37 100.004 121.756C102.842 118.143 105.036 114.336 106.585 110.336C108.133 106.335 108.907 102.657 108.907 99.3022C108.907 96.4632 108.262 94.0757 106.972 92.14C105.81 90.2043 103.939 89.1718 101.359 89.0429C100.455 89.0429 99.7455 88.7847 99.2294 88.2686C98.8423 87.6233 98.6487 86.9782 98.6487 86.3329C98.6487 85.4296 98.9069 84.6553 99.4229 84.01C100.068 83.2357 100.907 82.8486 101.939 82.8486C106.714 82.8486 110.198 84.4618 112.391 87.6879C114.585 90.785 115.682 94.5918 115.682 99.1086C115.682 103.367 114.714 107.884 112.779 112.659C110.972 117.433 108.327 121.95 104.843 126.209C101.359 130.467 97.1648 133.951 92.2613 136.661C87.3577 139.242 81.8091 140.533 75.6152 140.533C66.1953 140.533 59.2916 138.145 54.9043 133.371C50.646 128.467 48.5168 122.337 48.5168 114.981C48.5168 108.142 50.1299 100.657 53.3558 92.5272C56.7109 84.3972 61.3564 76.5253 67.2921 68.9114C72.7118 61.9429 79.0346 55.6196 86.2609 49.9414C93.6162 44.2633 101.552 39.8111 110.069 36.585C118.585 33.3589 127.231 31.9393 136.006 32.3264C142.329 32.5846 147.297 34.7139 150.91 38.7143C154.652 42.7147 156.523 48.5218 156.523 56.1357C156.523 61.1686 155.62 66.9757 153.813 73.5572C152.136 80.0096 149.426 87.3007 145.684 95.4307C147.877 92.0754 150.652 87.946 154.007 83.0422C157.362 78.1383 161.104 73.299 165.233 68.5243C169.362 63.7496 173.685 59.749 178.202 56.5229C182.718 53.1675 187.17 51.49 191.557 51.49C195.557 51.49 198.396 52.845 200.074 55.555C201.751 58.136 202.59 61.3622 202.59 65.2336C202.59 68.976 202.074 73.041 201.042 77.4286C200.009 81.8161 198.719 86.1393 197.17 90.3979C195.622 94.6564 194.073 98.5925 192.525 102.206C191.105 105.69 189.944 108.465 189.041 110.529C192.009 106.787 195.622 102.399 199.88 97.3664C204.268 92.2046 209.042 86.9782 214.204 81.6872C219.365 76.2672 224.656 71.2343 230.075 66.5886C235.624 61.9429 241.108 58.2004 246.529 55.3614C252.077 52.5225 257.303 51.1029 262.208 51.1029C268.014 51.1029 270.918 53.8129 270.918 59.2329C270.918 63.2333 269.369 68.0726 266.272 73.7507C265.239 75.6864 263.369 79.0418 260.659 83.8164C257.949 88.4622 254.787 94.0757 251.175 100.657C247.56 107.11 243.819 114.078 239.947 121.563C236.205 129.048 232.656 136.532 229.301 144.017C226.075 151.373 223.43 158.277 221.365 164.729C219.301 171.311 218.268 176.924 218.268 181.57C218.268 185.183 219.043 188.022 220.591 190.087C222.14 192.152 224.72 193.184 228.333 193.184C231.301 193.184 234.334 192.281 237.431 190.474C240.657 188.668 243.173 186.732 244.981 184.667C245.624 183.635 246.464 183.119 247.497 183.119C248.915 183.119 249.626 183.957 249.626 185.635C249.626 186.409 249.239 187.313 248.465 188.345C245.624 191.7 242.14 194.41 238.011 196.475C233.882 198.669 229.753 199.766 225.624 199.766ZM255.658 160.084C253.594 160.084 252.046 159.374 251.013 157.954C249.982 156.535 249.464 154.793 249.464 152.728C249.464 149.373 250.369 145.888 252.174 142.275C253.981 138.533 256.176 134.79 258.755 131.048C261.337 127.305 264.175 123.434 267.272 119.434C267.918 118.659 268.82 117.304 269.981 115.369C271.273 113.433 272.435 111.433 273.465 109.368C274.499 107.303 274.951 105.69 274.82 104.529C274.692 102.335 275.145 100.722 276.175 99.6893C277.208 98.5279 278.37 97.9472 279.659 97.9472C280.951 97.9472 281.919 98.4633 282.563 99.4957C283.337 100.657 283.724 102.077 283.724 103.754C283.724 105.561 283.081 107.819 281.789 110.529C280.627 113.11 278.563 116.401 275.595 120.401C273.272 123.499 270.693 126.854 267.852 130.467C265.142 133.951 262.82 137.371 260.884 140.726C258.948 144.082 257.981 146.921 257.981 149.244C257.981 150.921 258.692 151.76 260.11 151.76C261.015 151.76 262.304 151.373 263.981 150.599C266.047 149.566 268.885 147.566 272.498 144.598C276.241 141.63 280.112 138.275 284.111 134.532C288.241 130.661 291.984 126.918 295.338 123.305C298.822 119.692 301.338 116.853 302.886 114.788C303.661 113.626 304.629 113.046 305.79 113.046C306.695 113.046 307.532 113.368 308.306 114.014C309.08 114.659 309.467 115.498 309.467 116.53C309.467 117.046 309.274 117.627 308.887 118.272C308.113 119.692 307.082 121.692 305.79 124.273C304.5 126.854 303.211 129.628 301.919 132.596C300.757 135.565 299.727 138.339 298.822 140.92C298.047 143.372 297.66 145.243 297.66 146.534C297.66 147.953 298.113 148.663 299.015 148.663C299.661 148.663 300.436 148.34 301.338 147.695C302.371 146.921 303.274 146.275 304.048 145.759C307.275 143.178 310.242 140.468 312.952 137.629C315.792 134.661 318.371 131.887 320.694 129.306C321.212 128.66 321.855 128.338 322.629 128.338C323.276 128.338 323.856 128.725 324.372 129.499C325.018 130.145 325.339 130.983 325.339 132.016C325.339 133.177 325.018 134.145 324.372 134.919C322.308 137.629 319.598 140.662 316.242 144.017C312.889 147.243 309.92 149.824 307.338 151.76C305.662 152.921 303.661 154.083 301.338 155.244C299.146 156.277 297.08 156.793 295.144 156.793C293.467 156.793 292.112 156.341 291.079 155.438C290.177 154.405 289.724 152.663 289.724 150.211C289.724 148.147 290.049 145.759 290.692 143.049C291.466 140.339 292.371 137.565 293.402 134.726C289.016 139.113 284.048 143.501 278.498 147.889C273.078 152.276 268.111 155.567 263.594 157.761C260.369 159.309 257.724 160.084 255.658 160.084ZM334.526 161.632C327.427 161.632 323.88 158.083 323.88 150.986C323.88 148.018 324.524 144.662 325.816 140.92C327.752 135.242 330.655 129.112 334.526 122.531C338.526 115.949 342.59 109.626 346.72 103.561H339.752C338.719 103.561 337.88 103.238 337.236 102.593C336.718 101.819 336.462 100.98 336.462 100.076C336.462 99.3022 336.718 98.5925 337.236 97.9472C337.88 97.1729 338.719 96.7857 339.752 96.7857H351.559C352.977 94.979 354.269 93.2368 355.431 91.5593C356.592 89.7526 357.753 88.0104 358.915 86.3329C360.72 81.6872 362.914 77.235 365.496 72.9764C368.205 68.7179 371.496 65.2982 375.367 62.7172C376.011 62.33 376.591 62.1364 377.109 62.1364C378.14 62.1364 379.045 62.6525 379.819 63.685C380.593 64.5883 380.98 65.6207 380.98 66.7822C380.98 67.6854 380.656 68.6533 380.013 69.6857C379.625 70.2018 378.399 71.815 376.335 74.525C374.269 77.235 371.818 80.5903 368.98 84.5907C366.139 88.4622 363.173 92.5272 360.076 96.7857H378.658C379.819 96.7857 380.656 97.1729 381.174 97.9472C381.689 98.5925 381.948 99.3022 381.948 100.076C381.948 100.98 381.689 101.819 381.174 102.593C380.656 103.238 379.819 103.561 378.658 103.561H355.431L353.689 106.271C352.527 107.948 350.785 110.658 348.462 114.401C346.268 118.143 343.88 122.273 341.301 126.789C338.847 131.306 336.718 135.694 334.913 139.952C333.234 144.082 332.397 147.501 332.397 150.211C332.397 153.438 333.752 155.051 336.462 155.051C338.654 155.051 341.944 154.018 346.333 151.954C350.848 149.76 355.3 146.792 359.689 143.049C362.268 140.855 364.656 138.533 366.851 136.081C369.043 133.629 371.109 131.37 373.044 129.306C373.56 128.66 374.206 128.338 374.98 128.338C375.624 128.338 376.204 128.725 376.722 129.499C377.366 130.145 377.69 130.983 377.69 132.016C377.69 133.177 377.366 134.145 376.722 134.919C374.786 137.629 372.077 140.662 368.593 144.017C365.237 147.243 362.268 149.824 359.689 151.76C354.785 155.373 349.493 158.083 343.817 159.89C340.333 161.051 337.236 161.632 334.526 161.632ZM383.405 162.6C379.405 162.6 375.984 161.374 373.146 158.922C370.436 156.47 369.081 152.212 369.081 146.146C369.081 142.017 370.114 137.178 372.178 131.629C374.373 126.08 377.276 120.724 380.888 115.562C384.501 110.271 388.503 105.948 392.889 102.593C397.276 99.1086 401.728 97.3664 406.245 97.3664C409.213 97.3664 411.405 98.4633 412.826 100.657C414.374 102.722 415.148 105.238 415.148 108.206C415.148 112.594 413.728 116.853 410.89 120.982C408.052 125.112 404.437 128.467 400.051 131.048C395.793 133.629 391.534 134.919 387.276 134.919C383.792 134.919 381.147 133.822 379.34 131.629C378.307 134.21 377.47 136.726 376.824 139.178C376.178 141.63 375.856 143.953 375.856 146.146C375.856 149.889 376.63 152.534 378.179 154.083C379.855 155.502 381.922 156.212 384.373 156.212C387.341 156.212 390.632 155.438 394.244 153.889C397.987 152.341 401.471 150.534 404.696 148.469C407.921 146.275 410.309 144.469 411.858 143.049C414.44 140.855 416.89 138.468 419.213 135.887C421.664 133.177 423.793 130.661 425.601 128.338C426.247 127.564 426.956 127.176 427.73 127.176C428.504 127.176 429.15 127.564 429.665 128.338C430.311 128.983 430.633 129.822 430.633 130.854C430.633 131.758 430.311 132.661 429.665 133.564C427.602 136.145 425.02 139.113 421.923 142.469C418.954 145.695 415.601 148.727 411.858 151.566C409.794 153.244 407.147 154.922 403.922 156.599C400.697 158.277 397.276 159.696 393.663 160.858C390.179 162.019 386.761 162.6 383.405 162.6ZM386.889 128.725C389.47 128.725 392.243 127.886 395.212 126.209C398.309 124.531 401.019 122.337 403.341 119.627C405.792 116.788 407.406 113.755 408.18 110.529C408.309 110.271 408.374 109.949 408.374 109.561C408.374 109.174 408.374 108.852 408.374 108.594C408.374 106.271 407.534 105.109 405.858 105.109C403.148 105.109 400.31 106.142 397.341 108.206C394.372 110.142 391.534 112.788 388.824 116.143C386.243 119.369 383.92 122.918 381.856 126.789C382.372 127.176 382.889 127.564 383.405 127.951C383.92 128.209 384.438 128.402 384.953 128.531C385.212 128.66 385.534 128.725 385.921 128.725C386.308 128.725 386.63 128.725 386.889 128.725Z" fill="#FFD466"/>
<path d="M532.288 181.473H256.466C240.431 181.473 227.432 194.473 227.432 210.509V222.607C227.432 238.643 240.431 251.643 256.466 251.643H532.288C548.323 251.643 561.322 238.643 561.322 222.607V210.509C561.322 194.473 548.323 181.473 532.288 181.473Z" fill="#FFD466"/>
<path d="M440.347 43.5536V152.438C440.347 156.447 443.597 159.696 447.606 159.696H466.962C470.971 159.696 474.22 156.447 474.22 152.438V43.5536C474.22 39.5446 470.971 36.2947 466.962 36.2947H447.606C443.597 36.2947 440.347 39.5446 440.347 43.5536Z" fill="white"/>
<path d="M464.542 67.75H450.025V145.179H464.542V67.75Z" fill="#8CBFB6"/>
<path d="M474.22 48.3929H440.347V55.6518H474.22V48.3929Z" fill="#8CBFB6"/>
<path d="M479.459 59.7932L484.657 154.016C484.878 158.019 488.302 161.085 492.305 160.864L507.04 160.051C511.043 159.83 514.109 156.406 513.888 152.403L508.69 58.1804C508.469 54.1775 505.045 51.1115 501.043 51.3324L486.307 52.1454C482.304 52.3662 479.238 55.7903 479.459 59.7932Z" fill="white"/>
<path d="M508.738 59.6652L479.572 61.2755L479.972 68.5234L509.138 66.9131L508.738 59.6652Z" fill="#8CBFB6"/>
<path d="M514.859 91.7089L532.292 155.026C533.356 158.891 537.352 161.162 541.217 160.097L553.664 156.67C557.529 155.605 559.8 151.609 558.735 147.744L541.302 84.4272C540.238 80.562 536.242 78.2915 532.377 79.3557L519.93 82.7834C516.065 83.8476 513.794 87.8437 514.859 91.7089Z" fill="white"/>
<path d="M541.528 85.2342L515.066 92.5235L516.994 99.5218L543.456 92.2325L541.528 85.2342Z" fill="#8CBFB6"/>
<path d="M543.989 94.4333L517.65 101.689L518.528 104.877L544.867 97.622L543.989 94.4333Z" fill="#8CBFB6"/>
<g filter="url(#filter1_i_123_401)">
<path d="M279.054 229.13C280.363 229.13 281.312 228.747 281.9 227.979C282.531 227.166 283.006 226.195 283.322 225.065H291.858C291.677 226.737 291.249 228.317 290.571 229.808C289.894 231.253 288.989 232.518 287.861 233.602C286.778 234.686 285.466 235.544 283.932 236.177C282.442 236.809 280.838 237.125 279.122 237.125H273.296C271.489 237.125 269.773 236.786 268.147 236.109C266.522 235.386 265.099 234.415 263.879 233.195C262.66 231.976 261.687 230.553 260.966 228.927C260.289 227.301 259.95 225.562 259.95 223.711V204.469C259.95 202.618 260.289 200.879 260.966 199.253C261.687 197.581 262.66 196.136 263.879 194.917C265.099 193.697 266.522 192.749 268.147 192.071C269.773 191.348 271.489 190.987 273.296 190.987H279.122C280.884 190.987 282.51 191.303 284 191.936C285.49 192.568 286.778 193.449 287.861 194.578C288.989 195.662 289.894 196.949 290.571 198.44C291.249 199.93 291.677 201.534 291.858 203.25H283.322C283.095 202.076 282.667 201.082 282.035 200.269C281.401 199.456 280.409 199.049 279.054 199.049H273.364C271.782 199.049 270.519 199.614 269.57 200.743C268.665 201.872 268.215 203.25 268.215 204.876V223.236C268.215 224.862 268.665 226.263 269.57 227.437C270.519 228.566 271.782 229.13 273.364 229.13H279.054ZM311.558 202.64C313.547 202.64 315.308 202.956 316.842 203.589C318.424 204.176 319.755 205.012 320.839 206.096C321.969 207.18 322.828 208.489 323.413 210.025C324.001 211.561 324.294 213.3 324.294 215.242V224.523C324.294 226.42 324.001 228.159 323.413 229.74C322.828 231.276 321.969 232.608 320.839 233.737C319.755 234.821 318.424 235.657 316.842 236.244C315.308 236.832 313.547 237.125 311.558 237.125H308.78C306.84 237.125 305.079 236.832 303.496 236.244C301.916 235.657 300.561 234.821 299.431 233.737C298.348 232.608 297.513 231.276 296.925 229.74C296.383 228.159 296.112 226.42 296.112 224.523V215.242C296.112 213.3 296.383 211.561 296.925 210.025C297.513 208.489 298.348 207.18 299.431 206.096C300.561 205.012 301.916 204.176 303.496 203.589C305.079 202.956 306.84 202.64 308.78 202.64H311.558ZM308.78 210.432C307.382 210.432 306.184 210.906 305.19 211.854C304.241 212.757 303.767 213.955 303.767 215.445V224.252C303.767 225.743 304.241 226.963 305.19 227.911C306.184 228.86 307.382 229.334 308.78 229.334H311.558C313.005 229.334 314.178 228.86 315.081 227.911C316.029 226.963 316.503 225.743 316.503 224.252V215.445C316.503 213.955 316.029 212.757 315.081 211.854C314.178 210.906 313.005 210.432 311.558 210.432H308.78ZM343.372 210.364C342.196 210.364 341.226 210.522 340.459 210.838C339.735 211.109 339.172 211.493 338.765 211.99C338.359 212.486 338.063 213.096 337.884 213.819C337.749 214.496 337.681 215.242 337.681 216.055V237.125H329.755V202.64H337.681V203.521C339.261 202.934 340.955 202.64 342.762 202.64H346.285C348.271 202.64 350.033 202.979 351.569 203.656C353.103 204.334 354.368 205.237 355.363 206.367C356.401 207.451 357.168 208.715 357.666 210.161C358.208 211.561 358.479 212.984 358.479 214.429V237.125H350.553V216.055C350.553 215.242 350.485 214.496 350.35 213.819C350.214 213.096 349.943 212.486 349.537 211.99C349.174 211.493 348.632 211.109 347.911 210.838C347.187 210.522 346.217 210.364 344.998 210.364H343.372ZM383.264 198.236H380.826C379.289 198.236 378.048 198.711 377.1 199.659C376.151 200.608 375.677 201.827 375.677 203.318V204.808H383.264V212.599H375.677V237.193H368.564V212.599H362.399V204.808H368.564V203.656C368.564 201.714 368.835 199.975 369.377 198.44C369.919 196.859 370.707 195.526 371.748 194.442C372.832 193.358 374.119 192.523 375.609 191.936C377.143 191.303 378.883 190.987 380.826 190.987H383.264V198.236ZM403.264 229.401C404.391 229.401 405.296 229.266 405.974 228.995C406.695 228.724 407.261 228.363 407.667 227.911C408.117 227.459 408.434 226.917 408.616 226.285C408.795 225.653 408.887 224.975 408.887 224.252V202.64H416.813V237.125H408.887V236.244C408.163 236.561 407.372 236.786 406.516 236.922C405.703 237.057 404.822 237.125 403.874 237.125H400.419C398.386 237.125 396.601 236.786 395.067 236.109C393.576 235.431 392.333 234.55 391.341 233.466C390.346 232.337 389.579 231.073 389.037 229.672C388.539 228.227 388.292 226.782 388.292 225.336V202.64H396.151V223.711C396.151 224.524 396.218 225.269 396.354 225.946C396.489 226.624 396.76 227.234 397.167 227.776C397.573 228.272 398.137 228.679 398.86 228.995C399.581 229.266 400.554 229.401 401.774 229.401H403.264ZM446.011 209.347H432.53C431.942 209.347 431.446 209.461 431.04 209.686C430.677 209.867 430.362 210.138 430.091 210.499C429.82 210.861 429.617 211.267 429.482 211.719C429.346 212.125 429.278 212.532 429.278 212.938C429.278 213.796 429.549 214.587 430.091 215.31C430.677 215.987 431.378 216.326 432.191 216.326H439.779C441.359 216.326 442.736 216.597 443.911 217.139C445.131 217.681 446.123 218.426 446.892 219.375C447.705 220.323 448.291 221.452 448.654 222.762C449.06 224.072 449.263 225.472 449.263 226.963V227.166C449.263 228.656 449.014 230.011 448.518 231.231C448.066 232.45 447.41 233.489 446.553 234.347C445.695 235.205 444.678 235.883 443.505 236.38C442.329 236.877 441.088 237.125 439.779 237.125H423.384V230.418H437.476C438.513 230.418 439.462 230.124 440.321 229.537C441.223 228.95 441.698 228.069 441.743 226.895V226.963C441.743 226.285 441.608 225.72 441.337 225.269C441.11 224.817 440.795 224.456 440.389 224.185C439.982 223.869 439.53 223.643 439.034 223.507C438.535 223.372 438.018 223.304 437.476 223.304H431.378C429.39 223.304 427.742 222.988 426.433 222.356C425.168 221.723 424.151 220.91 423.384 219.917C422.661 218.923 422.165 217.794 421.894 216.529C421.623 215.264 421.488 213.977 421.488 212.667C421.488 211.312 421.691 210.002 422.097 208.738C422.504 207.473 423.089 206.367 423.859 205.418C424.672 204.424 425.664 203.656 426.839 203.114C428.013 202.572 429.346 202.302 430.836 202.302H446.011V209.347ZM462.379 237.125H454.385V202.64H462.379V237.125ZM462.379 198.914H454.385V190.987H462.379V198.914ZM482.776 202.64C484.762 202.64 486.523 202.956 488.06 203.589C489.64 204.176 490.973 205.012 492.057 206.096C493.187 207.18 494.043 208.489 494.631 210.025C495.219 211.561 495.512 213.3 495.512 215.242V224.523C495.512 226.42 495.219 228.159 494.631 229.74C494.043 231.276 493.187 232.608 492.057 233.737C490.973 234.821 489.64 235.657 488.06 236.244C486.523 236.832 484.762 237.125 482.776 237.125H479.998C478.055 237.125 476.294 236.832 474.714 236.244C473.134 235.657 471.779 234.821 470.649 233.737C469.565 232.608 468.731 231.276 468.143 229.74C467.601 228.159 467.33 226.42 467.33 224.523V215.242C467.33 213.3 467.601 211.561 468.143 210.025C468.731 208.489 469.565 207.18 470.649 206.096C471.779 205.012 473.134 204.176 474.714 203.589C476.294 202.956 478.055 202.64 479.998 202.64H482.776ZM479.998 210.432C478.597 210.432 477.402 210.906 476.408 211.854C475.459 212.757 474.985 213.955 474.985 215.445V224.252C474.985 225.743 475.459 226.963 476.408 227.911C477.402 228.86 478.597 229.334 479.998 229.334H482.776C484.22 229.334 485.396 228.86 486.298 227.911C487.247 226.963 487.721 225.743 487.721 224.252V215.445C487.721 213.955 487.247 212.757 486.298 211.854C485.396 210.906 484.22 210.432 482.776 210.432H479.998ZM514.587 210.364C513.414 210.364 512.443 210.522 511.674 210.838C510.953 211.109 510.387 211.493 509.98 211.99C509.574 212.486 509.281 213.096 509.1 213.819C508.964 214.496 508.896 215.242 508.896 216.055V237.125H500.97V202.64H508.896V203.521C510.479 202.934 512.173 202.64 513.977 202.64H517.5C519.489 202.64 521.25 202.979 522.784 203.656C524.321 204.334 525.586 205.237 526.578 206.367C527.618 207.451 528.385 208.715 528.881 210.161C529.423 211.561 529.694 212.984 529.694 214.429V237.125H521.768V216.055C521.768 215.242 521.7 214.496 521.565 213.819C521.429 213.096 521.158 212.486 520.752 211.99C520.391 211.493 519.85 211.109 519.126 210.838C518.405 210.522 517.432 210.364 516.213 210.364H514.587Z" fill="#8CBFB6"/>
</g>
<path d="M96.4591 190.123H81.7244V179.453H121.694V190.123H106.79V237.125H96.4591V190.123ZM143.276 203.673C141.809 203.673 140.595 203.871 139.635 204.266C138.732 204.605 138.026 205.085 137.518 205.706C137.01 206.327 136.643 207.089 136.417 207.993C136.248 208.839 136.163 209.771 136.163 210.787V237.125H126.679V179.453H136.163V194.951C137.01 194.668 137.885 194.443 138.788 194.273C139.748 194.104 140.764 194.019 141.837 194.019H146.918C149.402 194.019 151.575 194.443 153.438 195.289C155.358 196.136 156.938 197.266 158.18 198.677C159.479 200.032 160.439 201.613 161.059 203.419C161.681 205.17 161.991 206.948 161.991 208.755V237.125H152.422V210.787C152.422 209.771 152.337 208.839 152.168 207.993C151.998 207.089 151.632 206.327 151.067 205.706C150.559 205.085 149.853 204.605 148.95 204.266C148.047 203.871 146.861 203.673 145.393 203.673H143.276ZM167.592 209.347C167.592 207.259 167.987 205.311 168.778 203.504C169.568 201.641 170.612 200.004 171.911 198.592C173.209 197.181 174.705 196.08 176.399 195.289C178.093 194.443 179.786 194.019 181.48 194.019H191.134C193.336 194.019 195.283 194.499 196.977 195.459C198.727 196.362 200.166 197.548 201.296 199.016C202.481 200.427 203.384 202.036 204.005 203.843C204.683 205.593 205.022 207.315 205.022 209.009V219.933H177.585V222.22C177.585 224.252 178.149 225.692 179.278 226.539C180.407 227.386 181.903 227.809 183.766 227.809H203.497V237.294H181.565C179.645 237.294 177.839 236.927 176.145 236.193C174.451 235.403 172.955 234.359 171.657 233.06C170.415 231.761 169.427 230.209 168.693 228.402C167.959 226.595 167.592 224.62 167.592 222.474V209.347ZM177.669 211.888H195.199V211.465C195.199 209.263 194.634 207.456 193.505 206.045C192.376 204.577 190.851 203.843 188.932 203.843H183.682C182.778 203.843 181.96 204.069 181.226 204.52C180.492 204.915 179.871 205.452 179.363 206.129C178.855 206.807 178.431 207.625 178.093 208.585C177.81 209.489 177.669 210.448 177.669 211.465V211.888Z" fill="white"/>
</g>
<defs>
<filter id="filter0_d_123_401" x="44.5168" y="32.2642" width="520.805" height="227.379" filterUnits="userSpaceOnUse" color-interpolation-filters="sRGB">
<feFlood flood-opacity="0" result="BackgroundImageFix"/>
<feColorMatrix in="SourceAlpha" type="matrix" values="0 0 0 0 0 0 0 0 0 0 0 0 0 0 0 0 0 0 127 0" result="hardAlpha"/>
<feOffset dy="4"/>
<feGaussianBlur stdDeviation="2"/>
<feComposite in2="hardAlpha" operator="out"/>
<feColorMatrix type="matrix" values="0 0 0 0 0 0 0 0 0 0 0 0 0 0 0 0 0 0 0.25 0"/>
<feBlend mode="normal" in2="BackgroundImageFix" result="effect1_dropShadow_123_401"/>
<feBlend mode="normal" in="SourceGraphic" in2="effect1_dropShadow_123_401" result="shape"/>
</filter>
<filter id="filter1_i_123_401" x="259.95" y="190.987" width="269.744" height="50.2055" filterUnits="userSpaceOnUse" color-interpolation-filters="sRGB">
<feFlood flood-opacity="0" result="BackgroundImageFix"/>
<feBlend mode="normal" in="SourceGraphic" in2="BackgroundImageFix" result="shape"/>
<feColorMatrix in="SourceAlpha" type="matrix" values="0 0 0 0 0 0 0 0 0 0 0 0 0 0 0 0 0 0 127 0" result="hardAlpha"/>
<feOffset dy="4"/>
<feGaussianBlur stdDeviation="2"/>
<feComposite in2="hardAlpha" operator="arithmetic" k2="-1" k3="1"/>
<feColorMatrix type="matrix" values="0 0 0 0 0 0 0 0 0 0 0 0 0 0 0 0 0 0 0.25 0"/>
<feBlend mode="normal" in2="shape" result="effect1_innerShadow_123_401"/>
</filter>
</defs>
</svg>
