<svg width="1351" height="949" viewBox="0 0 1351 949" fill="none" xmlns="http://www.w3.org/2000/svg">
<g filter="url(#filter0_d_123_276)">
<path d="M3 10.6099C259.901 -8.85093 405.868 -1.0666 672.5 30.0707V935C672.5 935 459.72 917.972 328.992 917.972C198.264 917.972 3 935 3 935V10.6099Z" fill="url(#paint0_linear_123_276)"/>
<path d="M3 10.6099C259.901 -8.85093 405.868 -1.0666 672.5 30.0707V935C672.5 935 459.72 917.972 328.992 917.972C198.264 917.972 3 935 3 935V10.6099Z" fill="black" fill-opacity="0.1"/>
<path d="M672.5 30.0707C926.482 -3.01268 1076.34 -6.41833 1342 10.6099V935C1342 935 1129.22 917.972 998.492 917.972C867.764 917.972 672.5 935 672.5 935V30.0707Z" fill="url(#paint1_linear_123_276)"/>
<path d="M672.5 30.0707C926.482 -3.01268 1076.34 -6.41833 1342 10.6099V935C1342 935 1129.22 917.972 998.492 917.972C867.764 917.972 672.5 935 672.5 935V30.0707Z" fill="black" fill-opacity="0.1"/>
</g>
<defs>
<filter id="filter0_d_123_276" x="0.9" y="0" width="1349.2" height="948.1" filterUnits="userSpaceOnUse" color-interpolation-filters="sRGB">
<feFlood flood-opacity="0" result="BackgroundImageFix"/>
<feColorMatrix in="SourceAlpha" type="matrix" values="0 0 0 0 0 0 0 0 0 0 0 0 0 0 0 0 0 0 127 0" result="hardAlpha"/>
<feOffset dx="3" dy="8"/>
<feGaussianBlur stdDeviation="2.55"/>
<feComposite in2="hardAlpha" operator="out"/>
<feColorMatrix type="matrix" values="0 0 0 0 0 0 0 0 0 0 0 0 0 0 0 0 0 0 0.25 0"/>
<feBlend mode="normal" in2="BackgroundImageFix" result="effect1_dropShadow_123_276"/>
<feBlend mode="normal" in="SourceGraphic" in2="effect1_dropShadow_123_276" result="shape"/>
</filter>
<linearGradient id="paint0_linear_123_276" x1="3.00001" y1="400.313" x2="1342" y2="400.313" gradientUnits="userSpaceOnUse">
<stop stop-color="#FBF8CF"/>
<stop offset="0.5" stop-color="#C7C5A5"/>
<stop offset="1" stop-color="#FBF8CF"/>
</linearGradient>
<linearGradient id="paint1_linear_123_276" x1="3.00001" y1="400.313" x2="1342" y2="400.313" gradientUnits="userSpaceOnUse">
<stop stop-color="#FBF8CF"/>
<stop offset="0.5" stop-color="#C7C5A5"/>
<stop offset="1" stop-color="#FBF8CF"/>
</linearGradient>
</defs>
</svg>
